<?xml version="1.0" standalone="no"?>
<!DOCTYPE svg PUBLIC "-//W3C//DTD SVG 20010904//EN"
 "http://www.w3.org/TR/2001/REC-SVG-20010904/DTD/svg10.dtd">
<svg version="1.0" xmlns="http://www.w3.org/2000/svg"
 width="1833.000000pt" height="1833.000000pt" viewBox="0 0 1833.000000 1833.000000"
 preserveAspectRatio="xMidYMid meet">
<metadata>
Created by potrace 1.11, written by Peter Selinger 2001-2013
</metadata>
<g transform="translate(0.000000,1833.000000) scale(0.100000,-0.100000)"
fill="#000000" stroke="none">
<path d="M4520 18273 c-52 -31 -194 -113 -315 -183 -121 -69 -328 -189 -460
-265 -132 -76 -307 -178 -390 -225 -921 -532 -2636 -1522 -2965 -1712 -85 -50
-188 -109 -227 -132 l-73 -41 0 -7859 c0 -7100 1 -7858 16 -7852 16 6 992 569
1164 671 30 18 89 51 130 74 41 23 89 50 105 60 17 10 131 76 255 148 605 348
710 410 778 450 41 24 75 43 77 43 2 0 47 26 102 58 54 32 118 70 143 84 25
14 158 90 295 170 138 79 475 274 750 433 275 158 549 317 608 352 60 34 111
63 113 63 3 0 120 67 262 149 141 82 273 158 292 169 19 11 307 177 640 369
333 192 841 486 1130 653 289 166 743 429 1010 583 267 154 568 328 670 387
102 59 262 151 355 205 94 54 175 98 180 98 6 0 82 -42 170 -93 235 -137 1882
-1088 1935 -1118 25 -14 155 -89 290 -167 135 -78 571 -330 970 -560 399 -230
766 -442 815 -470 115 -68 506 -294 565 -327 25 -14 144 -83 265 -153 121 -70
240 -139 265 -153 57 -32 470 -269 490 -282 24 -14 519 -301 1150 -665 74 -43
151 -87 170 -98 19 -10 161 -92 315 -182 154 -89 300 -173 325 -187 25 -14 86
-49 135 -78 50 -29 106 -62 125 -72 19 -11 134 -78 255 -148 253 -146 594
-343 645 -372 19 -11 65 -38 102 -59 36 -22 70 -39 75 -39 4 0 9 3536 10 7858
l2 7857 -147 84 c-81 47 -214 124 -297 171 -570 329 -1205 696 -1650 953 -286
166 -549 317 -585 337 -36 21 -121 70 -190 110 -69 40 -145 84 -170 98 -25 13
-49 28 -55 32 -5 4 -30 19 -55 32 -25 14 -218 126 -430 248 -212 123 -401 232
-420 243 -68 38 -436 250 -483 278 -26 16 -49 29 -52 29 -3 0 -6 -2356 -7
-5235 l-3 -5235 -340 196 c-187 108 -358 206 -380 219 -22 12 -211 121 -420
242 -503 291 -831 480 -880 508 -22 13 -107 62 -190 110 -82 48 -170 99 -195
113 -25 14 -142 81 -260 150 -118 68 -231 133 -250 144 -19 11 -48 27 -65 37
-16 10 -266 154 -555 321 -289 167 -592 342 -673 389 -351 203 -322 189 -350
172 -12 -8 -80 -48 -152 -89 -227 -131 -1033 -596 -1325 -766 -25 -14 -83 -47
-129 -73 -46 -27 -100 -57 -120 -69 -20 -11 -283 -164 -586 -339 -302 -175
-593 -343 -645 -373 -957 -552 -1298 -749 -1410 -814 l-135 -79 -3 5236 c-1
2879 -5 5235 -10 5234 -4 0 -50 -25 -102 -56z"/>
</g>
</svg>
